<svg width="35" height="35" viewBox="0 0 35 35" fill="none" xmlns="http://www.w3.org/2000/svg">
<g clip-path="url(#clip0_2308_12530)">
<path d="M26.0947 0.49707H7.98817C3.57642 0.49707 0 4.07349 0 8.48524V26.5917C0 31.0035 3.57642 34.5799 7.98817 34.5799H26.0947C30.5064 34.5799 34.0828 31.0035 34.0828 26.5917V8.48524C34.0828 4.07349 30.5064 0.49707 26.0947 0.49707Z" fill="#242938"/>
<g clip-path="url(#clip1_2308_12530)">
<path d="M23.9891 7.5127H16.6406C16.6406 9.34462 18.1237 10.8273 19.9548 10.8273H21.3068V12.1356C21.3068 13.9675 22.7897 15.4504 24.6216 15.4504V8.14503C24.6215 7.97735 24.5548 7.81659 24.4362 7.69804C24.3176 7.57948 24.1568 7.51282 23.9891 7.5127Z" fill="#2684FF"/>
<path d="M20.3485 11.1768H13C13 13.0087 14.4822 14.4911 16.3142 14.4911H17.666V15.7997C17.666 17.6316 19.1489 19.1147 20.9809 19.1147V11.8093C20.9807 11.6416 20.9141 11.4808 20.7955 11.3622C20.677 11.2436 20.5162 11.1769 20.3485 11.1768Z" fill="url(#paint0_linear_2308_12530)"/>
<path d="M16.7066 14.8389H9.35742C9.35742 16.6708 10.8403 18.1537 12.6721 18.1537H14.0243V19.4624C14.0243 21.2937 15.507 22.7766 17.3389 22.7766V15.4714C17.3388 15.3037 17.2721 15.1429 17.1536 15.0243C17.035 14.9057 16.8743 14.839 16.7066 14.8389Z" fill="url(#paint1_linear_2308_12530)"/>
<path d="M14.1123 23.5973H14.6711V26.3603C14.6711 27.0895 14.3387 27.598 13.5669 27.598C13.2773 27.598 13.0503 27.5496 12.8945 27.495V26.9655C13.0649 27.0341 13.2701 27.0685 13.4754 27.0685C13.9496 27.0685 14.1123 26.794 14.1123 26.3948V23.5973ZM15.6976 23.3838C15.9169 23.3838 16.0727 23.5146 16.0727 23.748C16.0727 23.9748 15.9169 24.1128 15.6976 24.1128C15.4784 24.1128 15.3227 23.9818 15.3227 23.748C15.3227 23.5218 15.4784 23.3838 15.6976 23.3838ZM15.4218 24.5456H15.9596V27.5706H15.4218V24.5456ZM17.2898 27.5706H16.7663V24.5456H17.29V25.0751C17.4743 24.7173 17.7858 24.4631 18.394 24.4975V25.0065C17.7077 24.9378 17.29 25.1368 17.29 25.7833L17.2898 27.5706ZM20.9073 27.0271C20.7089 27.4263 20.3339 27.6325 19.852 27.6325C19.0246 27.6325 18.6069 26.9515 18.6069 26.0578C18.6069 25.2055 19.0454 24.484 19.9163 24.484C20.3688 24.484 20.7229 24.683 20.9073 25.0751V24.5456H21.4451V27.5706H20.9073V27.0271ZM19.9939 27.1511C20.4751 27.1511 20.8996 26.8556 20.8996 26.1818V25.9415C20.8996 25.2678 20.5107 24.9721 20.0504 24.9721C19.4491 24.9721 19.1375 25.3568 19.1375 26.0578C19.1447 26.7868 19.4421 27.1511 19.9939 27.1511Z" fill="#4983E5"/>
</g>
</g>
<defs>
<linearGradient id="paint0_linear_2308_12530" x1="20.8281" y1="11.185" x2="17.7014" y2="14.409" gradientUnits="userSpaceOnUse">
<stop offset="0.176" stop-color="#0052CC"/>
<stop offset="1" stop-color="#2684FF"/>
</linearGradient>
<linearGradient id="paint1_linear_2308_12530" x1="17.3976" y1="14.8672" x2="13.7824" y2="18.3844" gradientUnits="userSpaceOnUse">
<stop offset="0.176" stop-color="#0052CC"/>
<stop offset="1" stop-color="#2684FF"/>
</linearGradient>
<clipPath id="clip0_2308_12530">
<rect width="34.0828" height="34.0828" fill="white" transform="translate(0 0.49707)"/>
</clipPath>
<clipPath id="clip1_2308_12530">
<rect width="20.8284" height="20.8284" fill="white" transform="translate(6.62891 7.12402)"/>
</clipPath>
</defs>
</svg>
