<svg width="35" height="35" viewBox="0 0 35 35" fill="none" xmlns="http://www.w3.org/2000/svg">
<g clip-path="url(#clip0_2308_12486)">
<path d="M26.0947 0.0827637H7.98817C3.57642 0.0827637 0 3.65919 0 8.07093V26.1774C0 30.5892 3.57642 34.1656 7.98817 34.1656H26.0947C30.5064 34.1656 34.0828 30.5892 34.0828 26.1774V8.07093C34.0828 3.65919 30.5064 0.0827637 26.0947 0.0827637Z" fill="#242938"/>
<path d="M16.8662 20.5746H12.2118L11.2608 23.5149C11.2358 23.6275 11.1358 23.7026 11.0232 23.6901H8.67083C8.53324 23.6901 8.4957 23.615 8.53324 23.4648L12.5621 11.8662C12.5997 11.7412 12.6372 11.6034 12.6872 11.4533C12.7373 11.1905 12.7623 10.9154 12.7623 10.6401C12.7498 10.5775 12.7998 10.5149 12.8624 10.5025H16.103C16.2031 10.5025 16.2531 10.54 16.2657 10.6025L20.8325 23.4899C20.8701 23.6275 20.8325 23.6901 20.7075 23.6901H18.0924C18.0049 23.7026 17.9173 23.6401 17.8923 23.5525L16.8662 20.5746ZM12.9375 18.0347H16.1155C16.0405 17.7719 15.9404 17.4591 15.8278 17.1338C15.7152 16.796 15.6026 16.4332 15.49 16.0578C15.3648 15.6699 15.2522 15.2945 15.127 14.9066C15.002 14.5188 14.8894 14.1559 14.7892 13.7931C14.6892 13.4428 14.6015 13.1174 14.514 12.8172H14.4889C14.3763 13.3552 14.2387 13.8933 14.0636 14.4312C13.8759 15.0318 13.6882 15.6573 13.488 16.283C13.3264 16.8736 13.1428 17.4578 12.9375 18.0347ZM23.6227 12.692C23.2098 12.7045 22.8095 12.5418 22.5092 12.2541C22.2215 11.9413 22.0713 11.5284 22.0838 11.103C22.0713 10.6776 22.2339 10.2772 22.5342 9.9894C22.8345 9.70166 23.2349 9.55151 23.6478 9.55151C24.1358 9.55151 24.5112 9.70166 24.7864 9.9894C25.0636 10.2927 25.2118 10.6922 25.1992 11.103C25.2118 11.5284 25.0617 11.9413 24.7614 12.2541C24.4736 12.5544 24.0482 12.7171 23.6227 12.692ZM22.2215 23.5525V13.9182C22.2215 13.7931 22.2714 13.743 22.384 13.743H24.8614C24.974 13.743 25.0241 13.8056 25.0241 13.9182V23.5525C25.0241 23.6901 24.974 23.7527 24.8614 23.7527H22.4091C22.284 23.7527 22.2215 23.6776 22.2215 23.5525Z" fill="#FF9A00"/>
</g>
<defs>
<clipPath id="clip0_2308_12486">
<rect width="34.0828" height="34.0828" fill="white" transform="translate(0 0.0827637)"/>
</clipPath>
</defs>
</svg>
