<svg width="35" height="35" viewBox="0 0 35 35" fill="none" xmlns="http://www.w3.org/2000/svg">
<g clip-path="url(#clip0_2308_12522)">
<path d="M26.0946 0.414307H7.98804C3.5763 0.414307 -0.00012207 3.99073 -0.00012207 8.40247V26.509C-0.00012207 30.9207 3.5763 34.4971 7.98804 34.4971H26.0946C30.5063 34.4971 34.0827 30.9207 34.0827 26.509V8.40247C34.0827 3.99073 30.5063 0.414307 26.0946 0.414307Z" fill="#242938"/>
<g clip-path="url(#clip1_2308_12522)">
<path d="M8.85512 11.9867C8.81702 10.8924 9.6696 9.8833 10.822 9.8833H22.6308C23.7832 9.8833 24.6358 10.8924 24.5977 11.9867C24.5611 13.0378 24.6087 14.3995 24.9513 15.5097C25.2951 16.6234 25.8748 17.3274 26.8243 17.4178V18.4435C25.8748 18.5339 25.2951 19.2379 24.9513 20.3515C24.6087 21.4618 24.5611 22.8235 24.5977 23.8747C24.6358 24.9689 23.7832 25.978 22.6308 25.978H10.822C9.6696 25.978 8.81702 24.9689 8.85516 23.8747C8.89173 22.8235 8.8442 21.4618 8.50147 20.3515C8.15773 19.2379 7.57658 18.5339 6.62708 18.4435V17.4178C7.57654 17.3274 8.15773 16.6234 8.50147 15.5097C8.8442 14.3995 8.89173 13.0378 8.85512 11.9867Z" fill="url(#paint0_linear_2308_12522)"/>
<g filter="url(#filter0_d_2308_12522)">
<path d="M17.1614 22.2088C19.0272 22.2088 20.1515 21.2953 20.1515 19.7885C20.1515 18.6495 19.3492 17.825 18.1581 17.6944V17.647C19.0332 17.5046 19.72 16.6919 19.72 15.7843C19.72 14.4911 18.699 13.6487 17.1432 13.6487H13.6426V22.2088H17.1614ZM15.0039 14.7343H16.815C17.7995 14.7343 18.3586 15.1733 18.3586 15.9682C18.3586 16.8165 17.7084 17.291 16.5294 17.291H15.0039V14.7343ZM15.0039 21.1233V18.3055H16.8028C18.0912 18.3055 18.7597 18.78 18.7597 19.7055C18.7597 20.6309 18.1095 21.1233 16.8818 21.1233H15.0039Z" fill="url(#paint1_linear_2308_12522)"/>
<path d="M17.1614 22.2088C19.0272 22.2088 20.1515 21.2953 20.1515 19.7885C20.1515 18.6495 19.3492 17.825 18.1581 17.6944V17.647C19.0332 17.5046 19.72 16.6919 19.72 15.7843C19.72 14.4911 18.699 13.6487 17.1432 13.6487H13.6426V22.2088H17.1614ZM15.0039 14.7343H16.815C17.7995 14.7343 18.3586 15.1733 18.3586 15.9682C18.3586 16.8165 17.7084 17.291 16.5294 17.291H15.0039V14.7343ZM15.0039 21.1233V18.3055H16.8028C18.0912 18.3055 18.7597 18.78 18.7597 19.7055C18.7597 20.6309 18.1095 21.1233 16.8818 21.1233H15.0039Z" stroke="white" stroke-width="0.0394477"/>
</g>
</g>
</g>
<defs>
<filter id="filter0_d_2308_12522" x="12.9916" y="13.1555" width="7.81067" height="9.86194" filterUnits="userSpaceOnUse" color-interpolation-filters="sRGB">
<feFlood flood-opacity="0" result="BackgroundImageFix"/>
<feColorMatrix in="SourceAlpha" type="matrix" values="0 0 0 0 0 0 0 0 0 0 0 0 0 0 0 0 0 0 127 0" result="hardAlpha"/>
<feOffset dy="0.157791"/>
<feGaussianBlur stdDeviation="0.315582"/>
<feColorMatrix type="matrix" values="0 0 0 0 0 0 0 0 0 0 0 0 0 0 0 0 0 0 0.15 0"/>
<feBlend mode="normal" in2="BackgroundImageFix" result="effect1_dropShadow_2308_12522"/>
<feBlend mode="normal" in="SourceGraphic" in2="effect1_dropShadow_2308_12522" result="shape"/>
</filter>
<linearGradient id="paint0_linear_2308_12522" x1="9.62822" y1="10.3093" x2="27.2772" y2="24.319" gradientUnits="userSpaceOnUse">
<stop stop-color="#9013FE"/>
<stop offset="1" stop-color="#6610F2"/>
</linearGradient>
<linearGradient id="paint1_linear_2308_12522" x1="14.2582" y1="14.2121" x2="18.2032" y2="20.884" gradientUnits="userSpaceOnUse">
<stop stop-color="white"/>
<stop offset="1" stop-color="#F1E5FC"/>
</linearGradient>
<clipPath id="clip0_2308_12522">
<rect width="34.0828" height="34.0828" fill="white" transform="translate(0 0.414307)"/>
</clipPath>
<clipPath id="clip1_2308_12522">
<rect width="20.1972" height="16.0947" fill="white" transform="translate(6.62695 9.88306)"/>
</clipPath>
</defs>
</svg>
