<svg width="35" height="35" viewBox="0 0 35 35" fill="none" xmlns="http://www.w3.org/2000/svg">
<g clip-path="url(#clip0_2308_12509)">
<path d="M26.0966 0.331299H7.99012C3.57838 0.331299 0.00195312 3.90772 0.00195312 8.31946V26.426C0.00195312 30.8377 3.57838 34.4141 7.99012 34.4141H26.0966C30.5084 34.4141 34.0848 30.8377 34.0848 26.426V8.31946C34.0848 3.90772 30.5084 0.331299 26.0966 0.331299Z" fill="#242938"/>
<g clip-path="url(#clip1_2308_12509)">
<path d="M21.147 7.91006H19.9454L21.195 9.26602V9.91154H18.6214V9.15569H19.8707L18.6214 7.79973V7.15356H21.147V7.91006ZM18.1111 7.91006H16.9095L18.1591 9.26602V9.91154H15.5853V9.15569H16.8348L15.5853 7.79973V7.15356H18.1111V7.91006ZM15.1049 7.94098H13.8084V9.12413H15.1049V9.91154H12.8867V7.15356H15.1049V7.94098Z" fill="#F0F0F0"/>
<path d="M11.1203 25.9484L9.80273 11.1711H24.2796L22.9609 25.946L17.0323 27.5898L11.1203 25.9484Z" fill="#1572B6"/>
<path d="M17.041 26.334L21.8314 25.0059L22.9584 12.3801H17.041V26.334Z" fill="#33A9DC"/>
<path d="M17.041 17.7339H19.4392L19.605 15.8781H17.041V14.0657H21.5857L21.5422 14.5519L21.0969 19.5461H17.041V17.7339Z" fill="white"/>
<path d="M17.0508 22.4407L17.0428 22.443L15.0244 21.8979L14.8952 20.4524H13.0762L13.3302 23.2981L17.0425 24.3286L17.051 24.3262L17.0508 22.4407Z" fill="#EBEBEB"/>
<path d="M19.2846 19.468L19.0663 21.8952L17.0449 22.4408V24.3264L20.7604 23.2967L20.7877 22.9905L21.103 19.468H19.2846Z" fill="white"/>
<path d="M17.046 14.0657V15.8779H12.6683L12.6318 15.4706L12.5493 14.5519L12.5059 14.0657H17.046ZM17.0396 17.7341V19.5465H15.0468L15.0105 19.1392L14.9278 18.2203L14.8844 17.7341H17.0396Z" fill="#EBEBEB"/>
</g>
</g>
<defs>
<clipPath id="clip0_2308_12509">
<rect width="34.0828" height="34.0828" fill="white" transform="translate(0 0.331299)"/>
</clipPath>
<clipPath id="clip1_2308_12509">
<rect width="20.8284" height="20.8284" fill="white" transform="translate(6.62695 6.95825)"/>
</clipPath>
</defs>
</svg>
