<svg width="20" height="20" viewBox="0 0 20 20" fill="none" xmlns="http://www.w3.org/2000/svg">
<path d="M12.2366 12.3566C11.932 12.6602 11.5722 12.9029 11.1766 13.0716C10.4643 13.3723 9.66974 13.4162 8.9287 13.1958C8.18766 12.9754 7.54622 12.5044 7.11409 11.8633L5.73242 12.7958C6.09279 13.3276 6.55125 13.7857 7.08326 14.1458C7.62463 14.5119 8.23291 14.7676 8.87326 14.8983C9.86409 15.1 10.8927 14.9984 11.8249 14.6066C12.4182 14.3548 12.9577 13.9916 13.4141 13.5366C13.6408 13.3108 13.8474 13.0608 14.0258 12.7958L12.6441 11.8633C12.5238 12.04 12.3874 12.2051 12.2366 12.3566Z" fill="#F4F4F4"/>
<path d="M10.0013 1.66602C5.4063 1.66602 1.66797 5.40435 1.66797 9.99935C1.66797 14.5943 5.4063 18.3327 10.0013 18.3327C14.5963 18.3327 18.3346 14.5943 18.3346 9.99935C18.3346 5.40435 14.5963 1.66602 10.0013 1.66602ZM10.0013 3.33268C12.4621 3.33268 14.6105 4.67685 15.7663 6.66602H4.2363C5.39214 4.67685 7.54047 3.33268 10.0013 3.33268ZM10.0013 16.666C6.32547 16.666 3.33464 13.6752 3.33464 9.99935C3.33464 9.42352 3.4163 8.86685 3.55464 8.33268H4.16797V9.16602C4.16797 9.60804 4.34356 10.032 4.65612 10.3445C4.96868 10.6571 5.39261 10.8327 5.83464 10.8327H7.5013C7.94333 10.8327 8.36725 10.6571 8.67981 10.3445C8.99237 10.032 9.16797 9.60804 9.16797 9.16602H10.8346C10.8346 9.60804 11.0102 10.032 11.3228 10.3445C11.6354 10.6571 12.0593 10.8327 12.5013 10.8327H14.168C14.61 10.8327 15.0339 10.6571 15.3465 10.3445C15.659 10.032 15.8346 9.60804 15.8346 9.16602V8.33268H16.448C16.5863 8.86685 16.668 9.42352 16.668 9.99935C16.668 13.6752 13.6771 16.666 10.0013 16.666Z" fill="#F4F4F4"/>
</svg>
