<svg width="35" height="35" viewBox="0 0 35 35" fill="none" xmlns="http://www.w3.org/2000/svg">
<g clip-path="url(#clip0_2308_12472)">
<path d="M26.0947 0H7.98817C3.57642 0 0 3.57642 0 7.98817V26.0947C0 30.5064 3.57642 34.0828 7.98817 34.0828H26.0947C30.5064 34.0828 34.0828 30.5064 34.0828 26.0947V7.98817C34.0828 3.57642 30.5064 0 26.0947 0Z" fill="#242938"/>
<mask id="mask0_2308_12472" style="mask-type:luminance" maskUnits="userSpaceOnUse" x="10" y="7" width="14" height="20">
<path d="M10.4141 7.57422H23.0399V26.5091H10.4141V7.57422Z" fill="white"/>
</mask>
<g mask="url(#mask0_2308_12472)">
<path d="M13.572 26.5092C15.314 26.5092 16.7278 25.0954 16.7278 23.3534V20.1975H13.572C11.83 20.1975 10.4161 21.6114 10.4161 23.3534C10.4161 25.0954 11.83 26.5092 13.572 26.5092Z" fill="#0ACF83"/>
<path d="M10.416 17.0425C10.416 15.3005 11.8299 13.8867 13.5719 13.8867H16.7277V20.1983H13.5719C11.8299 20.1983 10.416 18.7845 10.416 17.0425Z" fill="#A259FF"/>
<path d="M10.416 10.73C10.416 8.98799 11.8299 7.57422 13.5719 7.57422H16.7277V13.8859H13.5719C11.8299 13.8859 10.416 12.472 10.416 10.73Z" fill="#F24E1E"/>
<path d="M16.7285 7.57422H19.8843C21.6263 7.57422 23.0402 8.98799 23.0402 10.73C23.0402 12.472 21.6263 13.8859 19.8843 13.8859H16.7285V7.57422Z" fill="#FF7262"/>
<path d="M23.0402 17.0425C23.0402 18.7845 21.6263 20.1983 19.8843 20.1983C18.1423 20.1983 16.7285 18.7845 16.7285 17.0425C16.7285 15.3005 18.1423 13.8867 19.8843 13.8867C21.6263 13.8867 23.0402 15.3005 23.0402 17.0425Z" fill="#1ABCFE"/>
</g>
</g>
<defs>
<clipPath id="clip0_2308_12472">
<rect width="34.0828" height="34.0828" fill="white"/>
</clipPath>
</defs>
</svg>
