<svg width="35" height="35" viewBox="0 0 35 35" fill="none" xmlns="http://www.w3.org/2000/svg">
<g clip-path="url(#clip0_2308_12498)">
<path d="M26.0927 0.248535H7.98621C3.57447 0.248535 -0.00195312 3.82496 -0.00195312 8.2367V26.3432C-0.00195312 30.755 3.57447 34.3314 7.98621 34.3314H26.0927C30.5045 34.3314 34.0809 30.755 34.0809 26.3432V8.2367C34.0809 3.82496 30.5045 0.248535 26.0927 0.248535Z" fill="#242938"/>
<g clip-path="url(#clip1_2308_12498)">
<path d="M11.1584 25.8087L9.84961 11.1294H24.2306L22.9206 25.8064L17.0313 27.439L11.1584 25.8087Z" fill="#E44D26"/>
<path d="M17.041 26.1919L21.7997 24.8725L22.9193 12.3306H17.041V26.1919Z" fill="#F16529"/>
<path d="M17.0417 17.7736H14.6593L14.495 15.9297H17.0417V14.1294H12.5273L12.5703 14.6125L13.0129 19.5737H17.0417V17.7736ZM17.0417 22.449L17.0338 22.4512L15.0289 21.9096L14.9006 20.4739H13.0933L13.3455 23.3007L17.0334 24.3246L17.0417 24.3221V22.449Z" fill="#EBEBEB"/>
<path d="M11.1895 7.14111H12.1043V8.0452H12.9413V7.14111H13.8563V9.87842H12.9413V8.96181H12.1044V9.87842H11.1895V7.14111ZM15.0593 8.04894H14.2538V7.14111H16.7801V8.04894H15.9743V9.87842H15.0593V8.04894ZM17.181 7.14111H18.1349L18.7219 8.10296L19.3081 7.14111H20.2625V9.87842H19.3511V8.52165L18.7219 9.49489H18.7059L18.0762 8.52165V9.87842H17.1809V7.14111H17.181ZM20.718 7.14111H21.6331V8.97369H22.9198V9.87858H20.718V7.14111Z" fill="#F0F0F0"/>
<path d="M17.0332 17.7736V19.5737H19.2501L19.0412 21.9086L17.0332 22.4507V24.3236L20.7241 23.3007L20.7511 22.9964L21.1742 18.2568L21.2181 17.7736H20.7328H17.0332ZM17.0332 14.1294V15.9297H21.3819L21.4179 15.5251L21.5001 14.6125L21.5432 14.1294H17.0332Z" fill="white"/>
</g>
</g>
<defs>
<clipPath id="clip0_2308_12498">
<rect width="34.0828" height="34.0828" fill="white" transform="translate(0 0.248535)"/>
</clipPath>
<clipPath id="clip1_2308_12498">
<rect width="20.8284" height="20.8284" fill="white" transform="translate(6.62695 6.87549)"/>
</clipPath>
</defs>
</svg>
