<svg width="35" height="35" viewBox="0 0 35 35" fill="none" xmlns="http://www.w3.org/2000/svg">
<g clip-path="url(#clip0_2308_12492)">
<path d="M26.0948 0.165771H7.98829C3.57655 0.165771 0.00012207 3.7422 0.00012207 8.15394V26.2604C0.00012207 30.6722 3.57655 34.2486 7.98829 34.2486H26.0948C30.5065 34.2486 34.083 30.6722 34.083 26.2604V8.15394C34.083 3.7422 30.5065 0.165771 26.0948 0.165771Z" fill="#242938"/>
<path d="M8.52148 23.3858V10.7879C8.52148 10.7022 8.55821 10.6533 8.64395 10.6533C8.85204 10.6533 9.04797 10.6533 9.32951 10.641C9.62334 10.6287 9.92945 10.6287 10.26 10.6166C10.5906 10.6043 10.9456 10.6043 11.3251 10.592C11.7046 10.5798 12.0719 10.5798 12.4392 10.5798C13.4431 10.5798 14.2756 10.7022 14.9613 10.9593C15.5759 11.168 16.1362 11.511 16.6018 11.9632C16.9963 12.359 17.3011 12.835 17.4955 13.3589C17.6792 13.8731 17.7771 14.3996 17.7771 14.9505C17.7771 16.0034 17.5323 16.8726 17.0425 17.5583C16.5528 18.2438 15.8672 18.758 15.0715 19.0519C14.2389 19.358 13.3206 19.4682 12.3168 19.4682C12.023 19.4682 11.8271 19.4682 11.7046 19.4559C11.5822 19.4436 11.4108 19.4436 11.1782 19.4436V23.3735C11.1904 23.4593 11.1292 23.5327 11.0435 23.545H8.6684C8.57049 23.545 8.52148 23.496 8.52148 23.3858ZM11.1904 13.0161V17.1297C11.3619 17.142 11.5209 17.1543 11.6679 17.1543H12.3168C12.7943 17.1543 13.2718 17.0808 13.7247 16.9339C14.1165 16.8237 14.4592 16.591 14.7286 16.2849C14.9857 15.9789 15.1082 15.5626 15.1082 15.024C15.1197 14.6414 15.022 14.2634 14.8265 13.9343C14.6184 13.616 14.3246 13.3712 13.9696 13.2365C13.5166 13.0528 13.0268 12.9794 12.5249 12.9916C12.2066 12.9916 11.925 12.9916 11.6924 13.0039C11.4475 12.9916 11.2761 13.0039 11.1904 13.0161ZM25.4166 16.383C25.0494 16.187 24.6576 16.0524 24.2413 15.9667C23.7883 15.8688 23.3354 15.8075 22.8701 15.8075C22.6253 15.7953 22.3682 15.832 22.1355 15.8932C21.9764 15.9299 21.8417 16.0157 21.7561 16.138C21.6948 16.236 21.658 16.3584 21.658 16.4686C21.658 16.5788 21.707 16.6889 21.7805 16.787C21.8907 16.9216 22.0376 17.0318 22.1968 17.1175C22.4806 17.2645 22.7706 17.3993 23.066 17.5215C23.7271 17.7419 24.3638 18.0479 24.9514 18.4152C25.3555 18.6723 25.686 19.0151 25.9186 19.4314C26.1145 19.8232 26.2124 20.2516 26.2002 20.6924C26.2124 21.2679 26.041 21.8432 25.7227 22.3207C25.3812 22.8094 24.9048 23.188 24.3515 23.4103C23.7516 23.6674 23.017 23.8021 22.1355 23.8021C21.5724 23.8021 21.0215 23.7531 20.4706 23.6429C20.0388 23.5683 19.6188 23.4366 19.2218 23.2512C19.136 23.2022 19.0749 23.1164 19.087 23.0185V20.8883C19.087 20.8516 19.0993 20.8025 19.136 20.7781C19.1728 20.7537 19.2095 20.7658 19.2462 20.7904C19.7237 21.0719 20.2256 21.2679 20.7644 21.3902C21.2296 21.5127 21.7193 21.5738 22.209 21.5738C22.6743 21.5738 23.0048 21.5127 23.2252 21.4025C23.421 21.3167 23.5558 21.1087 23.5558 20.8883C23.5558 20.7169 23.4577 20.5577 23.2619 20.3985C23.066 20.2395 22.662 20.0558 22.0621 19.8232C21.4467 19.6063 20.8622 19.31 20.3236 18.9417C19.94 18.6682 19.6221 18.3127 19.3931 17.901C19.1972 17.5093 19.0993 17.0808 19.1116 16.6522C19.1116 16.1259 19.2585 15.6238 19.5278 15.1709C19.8339 14.6812 20.2869 14.2894 20.8133 14.0445C21.3888 13.7507 22.1111 13.616 22.9803 13.616C23.4823 13.616 23.9965 13.6528 24.4984 13.7262C24.8657 13.7752 25.2207 13.8731 25.5513 14.0078C25.6003 14.02 25.6493 14.069 25.6737 14.1179C25.686 14.167 25.6982 14.216 25.6982 14.2649V16.2605C25.6982 16.3095 25.6737 16.3584 25.637 16.383C25.5268 16.4074 25.4656 16.4074 25.4166 16.383Z" fill="#31A8FF"/>
</g>
<defs>
<clipPath id="clip0_2308_12492">
<rect width="34.0828" height="34.0828" fill="white" transform="translate(0 0.165771)"/>
</clipPath>
</defs>
</svg>
