<svg width="16" height="16" viewBox="0 0 16 16" fill="none" xmlns="http://www.w3.org/2000/svg">
<rect width="16" height="16" rx="2" fill="black"/>
<path d="M9.34195 9.41392C9.15919 9.59609 8.94332 9.7417 8.70595 9.84292C8.2786 10.0233 7.80184 10.0497 7.35722 9.91743C6.9126 9.78518 6.52773 9.50257 6.26845 9.11792L5.43945 9.67742C5.65567 9.99649 5.93075 10.2714 6.24995 10.4874C6.57478 10.7071 6.93975 10.8605 7.32395 10.9389C7.91846 11.06 8.53564 10.999 9.09495 10.7639C9.45091 10.6129 9.77459 10.3949 10.0485 10.1219C10.1845 9.98642 10.3085 9.83642 10.4155 9.67742L9.58645 9.11792C9.51428 9.22394 9.43243 9.32303 9.34195 9.41392Z" fill="white"/>
<path d="M8.00079 2.99963C5.24379 2.99963 3.00079 5.24263 3.00079 7.99963C3.00079 10.7566 5.24379 12.9996 8.00079 12.9996C10.7578 12.9996 13.0008 10.7566 13.0008 7.99963C13.0008 5.24263 10.7578 2.99963 8.00079 2.99963ZM8.00079 3.99963C9.47729 3.99963 10.7663 4.80613 11.4598 5.99963H4.54179C5.23529 4.80613 6.52429 3.99963 8.00079 3.99963ZM8.00079 11.9996C5.79529 11.9996 4.00079 10.2051 4.00079 7.99963C4.00079 7.65413 4.04979 7.32013 4.13279 6.99963H4.50079V7.49963C4.50079 7.76485 4.60615 8.0192 4.79369 8.20674C4.98122 8.39428 5.23558 8.49963 5.50079 8.49963H6.50079C6.76601 8.49963 7.02036 8.39428 7.2079 8.20674C7.39544 8.0192 7.50079 7.76485 7.50079 7.49963H8.50079C8.50079 7.76485 8.60615 8.0192 8.79369 8.20674C8.98122 8.39428 9.23558 8.49963 9.50079 8.49963H10.5008C10.766 8.49963 11.0204 8.39428 11.2079 8.20674C11.3954 8.0192 11.5008 7.76485 11.5008 7.49963V6.99963H11.8688C11.9518 7.32013 12.0008 7.65413 12.0008 7.99963C12.0008 10.2051 10.2063 11.9996 8.00079 11.9996Z" fill="white"/>
</svg>
